<?xml version="1.0" encoding="UTF-8"?>
<!-- Generator: Adobe Illustrator 27.0.1, SVG Export Plug-In . SVG Version: 6.00 Build 0)  -->
<svg xmlns="http://www.w3.org/2000/svg" xmlns:xlink="http://www.w3.org/1999/xlink" version="1.1"
    id="Layer_1" x="0px" y="0px" viewBox="0 0 1080 1080"
    style="enable-background:new 0 0 1080 1080;" xml:space="preserve">
<style type="text/css">
	.st0{fill:#AED136;}
	.st1{fill:#B1B1AD;}
	.st2{fill:#5F6F3D;}
</style>
<g>
	<path class="st0" d="M543.1,719h-497V0h497C714,0,850.6,135.8,850.6,305.5v108C850.6,583.2,714,719,543.1,719z"></path>
	<path class="st1" d="M670.5,1080H46.1V719c0-197.5,161.5-361,363.4-361h260.9c198.8,0,363.4,160.5,363.4,358   C1033.9,916.5,869.3,1080,670.5,1080z"></path>
	<path class="st2" d="M850.6,407.3v6.2C850.6,583.2,714,719,543.1,719h-497c0-98.7,40.4-188.2,105.6-256.1   C217,398,307,357.9,406.4,357.9h260.9C735.7,361,797.8,376.4,850.6,407.3z"></path>
</g>
</svg>